#!OML:ASF F:\VICON\USERDATA\INSTALL\rory3\rory3.ASF
:FULLY-SPECIFIED
:DEGREES
16
root 1.09231 17.821 -16.9931 6.34141 -2.79812 0.446828
lowerback 5.27657 -0.77338 -2.02627
upperback -0.536963 -1.089 2.11772
thorax -3.43592 -0.484111 3.41705
lowerneck -17.3024 -5.42906 -10.8753
upperneck 17.1894 -6.11146 7.24465
head 8.79225 -2.85637 3.46311
rclavicle -3.77691e-015 8.74653e-015
rhumerus -30.9977 -5.31292 -82.2691
rradius 33.3976
rwrist 3.37141
rhand -9.79613 15.2671
rfingers 7.12502
rthumb 16.18 -14.0776
lclavicle -3.77691e-015 8.74653e-015
lhumerus -31.5229 5.45631 85.1384
lradius 32.4534
lwrist -8.26988
lhand -20.0053 19.4394
lfingers 7.12502
lthumb 6.33469 49.3247
rfemur -11.0446 5.83045 20.8457
rtibia 21.2116
rfoot -11.0134 -9.56582
rtoes 2.56448
lfemur -11.2716 -2.02586 -21.6185
ltibia 20.5771
lfoot -11.9617 7.01103
ltoes 2.81711
17
root 1.09274 17.8192 -16.9924 6.29666 -2.81513 0.480938
lowerback 5.33213 -0.765531 -2.12479
upperback -0.555421 -1.08459 2.14443
thorax -3.48448 -0.478726 3.50172
lowerneck -17.2909 -5.40137 -10.8787
upperneck 17.2727 -6.06881 7.20328
head 8.81321 -2.84168 3.45616
rclavicle 1.73937e-014 -2.38542e-014
rhumerus -31.0596 -5.21368 -82.2213
rradius 33.3811
rwrist 3.3552
rhand -9.77493 15.4642
rfingers 7.12502
rthumb 16.2004 -13.8789
lclavicle 1.73937e-014 -2.38542e-014
lhumerus -31.6499 5.42904 85.2062
lradius 32.5044
lwrist -8.06371
lhand -14.2465 26.011
lfingers 7.12502
lthumb 11.8914 55.6534
rfemur -11.0349 5.80853 20.8054
rtibia 21.2616
rfoot -10.9953 -9.51123
rtoes 2.44696
lfemur -11.2087 -1.98497 -21.6604
ltibia 20.5605
lfoot -11.9616 6.97123
ltoes 2.611
18
root 1.09287 17.8192 -16.9929 6.23658 -2.8907 0.522359
lowerback 5.43249 -0.747885 -2.23023
upperback -0.575352 -1.06847 2.16556
thorax -3.56074 -0.466832 3.58461
lowerneck -17.2504 -5.3376 -10.9126
upperneck 17.2896 -5.97666 7.20231
head 8.80375 -2.80185 3.47491
rclavicle -5.96354e-016 -1.11319e-014
rhumerus -31.0995 -5.04717 -82.2025
rradius 33.3884
rwrist 3.24768
rhand -9.64276 15.5705
rfingers 7.12502
rthumb 16.3276 -13.7621
lclavicle -5.96354e-016 -1.11319e-014
lhumerus -31.7211 5.53389 85.2144
lradius 32.4948
lwrist -8.10032
lhand -18.212 21.283
lfingers 7.12502
lthumb 8.06571 51.1091
rfemur -10.9951 5.83058 20.7562
rtibia 21.2985
rfoot -10.9521 -9.42815
rtoes 2.61013
lfemur -11.1304 -1.97281 -21.7173
ltibia 20.5444
lfoot -11.9041 6.95519
ltoes 2.94184
19
root 1.09365 17.818 -16.9938 6.20246 -2.92462 0.517718
lowerback 5.48043 -0.742592 -2.23051
upperback -0.573802 -1.06207 2.16586
thorax -3.58664 -0.463181 3.58559
lowerneck -17.1848 -5.33348 -10.9657
upperneck 17.2574 -5.97037 7.23808
head 8.78337 -2.79992 3.49747
rclavicle -8.34896e-015 2.70347e-014
rhumerus -31.1089 -5.02406 -82.2124
rradius 33.3977
rwrist 3.28091
rhand -9.6097 15.1307
rfingers 7.12502
rthumb 16.3595 -14.1993
lclavicle -8.34896e-015 2.70347e-014
lhumerus -31.8013 5.53206 85.2158
lradius 32.6044
lwrist -8.10622
lhand -14.3725 25.1801
lfingers 7.12502
lthumb 11.7699 54.8294
rfemur -10.9671 5.82862 20.7583
rtibia 21.329
rfoot -10.9636 -9.41577
rtoes 2.47473
lfemur -11.0884 -1.91119 -21.7254
ltibia 20.5274
lfoot -11.8184 6.85442
ltoes 3.24143
20
root 1.09425 17.8178 -16.9948 6.21692 -2.97684 0.474927
lowerback 5.50105 -0.703995 -2.19956
upperback -0.572826 -1.00874 2.1663
thorax -3.6019 -0.436974 3.56458
lowerneck -17.1943 -5.37139 -11.0039
upperneck 17.2204 -6.02104 7.29055
head 8.78049 -2.82035 3.5144
rclavicle -1.45113e-014 2.66371e-014
rhumerus -31.0976 -5.13789 -82.1916
rradius 33.3484
rwrist 3.32146
rhand -9.71667 14.926
rfingers 7.12502
rthumb 16.2565 -14.4125
lclavicle -1.45113e-014 2.66371e-014
lhumerus -31.8531 5.4643 85.2313
lradius 32.727
lwrist -8.18503
lhand -18.526 19.9539
lfingers 7.12502
lthumb 7.76263 49.7914
rfemur -11.0139 5.87888 20.7915
rtibia 21.3707
rfoot -11.0481 -9.42518
rtoes 2.20247
lfemur -11.0877 -1.915 -21.6787
ltibia 20.4943
lfoot -11.7963 6.96132
ltoes 3.32641
21
root 1.09489 17.817 -16.9946 6.22454 -3.00074 0.516999
lowerback 5.56073 -0.693747 -2.26698
upperback -0.606047 -1.00049 2.16079
thorax -3.66966 -0.429891 3.59811
lowerneck -17.2561 -5.37995 -11.0563
upperneck 17.3011 -6.02847 7.3487
head 8.82346 -2.82067 3.5421
rclavicle -1.56046e-014 3.18055e-015
rhumerus -31.1192 -5.10134 -82.1604
rradius 33.2453
rwrist 3.23165
rhand -9.76198 15.3182
rfingers 7.12502
rthumb 16.2128 -14.0239
lclavicle -1.56046e-014 3.18055e-015
lhumerus -31.8642 5.51791 85.2281
lradius 32.6423
lwrist -8.32172
lhand -16.1154 20.7632
lfingers 7.12502
lthumb 10.0888 50.5013
rfemur -11.0554 5.9314 20.7381
rtibia 21.4058
rfoot -11.0897 -9.46456
rtoes 2.1738
lfemur -11.0669 -1.86341 -21.7262
ltibia 20.4586
lfoot -11.8395 6.99955
ltoes 3.23777
22
root 1.0971 17.8158 -16.9916 6.17709 -2.95195 0.660145
lowerback 5.54922 -0.715544 -2.37786
upperback -0.579445 -1.03864 2.11721
thorax -3.63151 -0.448131 3.61795
lowerneck -17.2965 -5.38559 -11.0908
upperneck 17.3245 -6.03503 7.40145
head 8.84222 -2.81995 3.56487
rclavicle 1.91827e-014 2.3059e-014
rhumerus -31.0983 -5.08333 -82.1608
rradius 33.1913
rwrist 3.22633
rhand -9.83303 15.5765
rfingers 7.12502
rthumb 16.1444 -13.7711
lclavicle 1.91827e-014 2.3059e-014
lhumerus -31.7766 5.51316 85.2488
lradius 32.5066
lwrist -8.19814
lhand -15.3038 23.2097
lfingers 7.12502
lthumb 10.8717 52.9082
rfemur -10.9923 5.86089 20.5782
rtibia 21.4197
rfoot -11.1684 -9.45608
rtoes 2.79459
lfemur -10.9833 -1.83187 -21.8965
ltibia 20.435
lfoot -11.9041 6.91826
ltoes 3.24486
23
root 1.09882 17.8168 -16.991 6.1361 -2.9245 0.65754
lowerback 5.54185 -0.723584 -2.34255
upperback -0.548576 -1.04774 2.09541
thorax -3.59557 -0.454655 3.57537
lowerneck -17.3009 -5.39977 -11.0197
upperneck 17.2984 -6.06077 7.35013
head 8.83258 -2.83224 3.53148
rclavicle 9.93923e-016 -1.47101e-014
rhumerus -31.0917 -5.12678 -82.1805
rradius 33.2006
rwrist 3.25102
rhand -9.80836 15.6417
rfingers 7.12502
rthumb 16.1682 -13.7039
lclavicle 9.93923e-016 -1.47101e-014
lhumerus -31.8123 5.38857 85.2643
lradius 32.5968
lwrist -8.01897
lhand -14.7471 24.5242
lfingers 7.12502
lthumb 11.4086 54.1938
rfemur -10.9429 5.78363 20.5884
rtibia 21.4275
rfoot -11.1557 -9.44292
rtoes 2.73954
lfemur -10.948 -1.70753 -21.9029
ltibia 20.4395
lfoot -11.9218 6.77773
ltoes 2.73828
